<?xml version="1.0" standalone="no"?>
<!DOCTYPE svg PUBLIC "-//W3C//DTD SVG 20010904//EN"
 "http://www.w3.org/TR/2001/REC-SVG-20010904/DTD/svg10.dtd">
<svg version="1.0" xmlns="http://www.w3.org/2000/svg"
 width="1500.000000pt" height="1500.000000pt" viewBox="0 0 1500.000000 1500.000000"
 preserveAspectRatio="xMidYMid meet">
<metadata>
Created by potrace 1.11, written by Peter Selinger 2001-2013
</metadata>
<g transform="translate(0.000000,1500.000000) scale(0.100000,-0.100000)"
fill="#000000" stroke="none">
<path d="M7009 14996 c-2 -2 -40 -7 -84 -10 -44 -4 -93 -9 -110 -11 -16 -3
-46 -7 -65 -9 -386 -54 -745 -204 -944 -394 -44 -43 -126 -144 -126 -156 0 -3
-35 -62 -78 -133 -44 -70 -335 -553 -647 -1073 -313 -520 -661 -1098 -773
-1285 l-205 -340 -3 -180 c-3 -199 9 -318 55 -530 95 -438 297 -920 618 -1476
45 -78 118 -196 144 -234 15 -22 56 -85 91 -140 36 -55 96 -147 133 -205 37
-58 87 -134 110 -170 23 -36 71 -110 107 -165 36 -55 132 -203 213 -330 82
-126 190 -294 241 -371 50 -78 102 -159 115 -181 l23 -40 -484 -759 c-266
-417 -502 -788 -525 -824 -23 -36 -90 -141 -150 -235 -60 -93 -123 -192 -140
-220 -18 -27 -90 -140 -160 -250 -70 -110 -263 -413 -428 -672 -166 -260 -313
-490 -327 -513 -14 -22 -61 -96 -105 -165 -44 -69 -96 -150 -115 -180 -19 -30
-80 -126 -135 -212 -140 -219 -129 -194 -106 -261 11 -31 61 -176 111 -322 50
-146 100 -287 110 -315 10 -27 34 -95 54 -150 82 -237 187 -532 196 -550 5
-11 16 -40 24 -65 41 -128 326 -888 461 -1230 89 -224 232 -567 259 -617 12
-24 12 -23 45 29 67 106 79 124 121 193 24 39 58 93 75 120 18 28 97 154 175
280 249 399 1147 1840 1300 2085 81 129 289 462 462 740 415 666 895 1435 925
1484 l25 39 38 -59 c21 -33 82 -126 136 -209 54 -82 103 -158 109 -168 10 -17
30 -48 264 -407 62 -96 128 -197 146 -225 17 -27 74 -115 126 -195 52 -80 126
-193 164 -253 39 -59 106 -162 150 -230 44 -68 100 -154 124 -193 25 -38 82
-125 126 -194 214 -327 280 -429 394 -605 67 -104 183 -282 256 -395 74 -113
161 -248 195 -300 33 -52 121 -187 194 -300 74 -113 171 -263 217 -335 46 -71
85 -132 88 -135 4 -3 11 -13 16 -23 12 -21 246 -382 354 -546 l75 -114 26 54
c29 64 56 125 101 229 17 41 37 89 44 105 49 112 193 483 300 770 59 156 231
632 265 730 21 61 45 128 53 150 9 22 37 101 62 175 25 74 49 142 52 150 14
36 171 494 239 700 l76 225 -854 1280 c-469 704 -935 1404 -1034 1555 -100
151 -260 394 -356 540 -96 146 -255 386 -352 534 -97 148 -175 274 -173 280 4
9 794 1277 827 1326 55 83 241 386 312 509 208 359 426 845 522 1161 34 114
73 258 80 295 3 17 14 79 26 140 72 386 33 798 -93 978 -24 34 -183 269 -352
522 -170 253 -381 568 -470 700 -89 132 -269 400 -400 595 -131 195 -294 438
-363 540 -68 102 -147 209 -176 239 -128 135 -379 249 -692 315 -152 32 -354
63 -459 71 -44 4 -93 9 -110 12 -35 6 -750 14 -756 9z m627 -2511 c46 -3 92
-8 101 -9 10 -2 43 -7 73 -10 30 -4 109 -18 175 -32 66 -13 131 -27 145 -30
96 -20 358 -110 467 -160 l62 -29 -77 -155 c-145 -288 -307 -581 -467 -845
-209 -345 -342 -562 -446 -731 -68 -109 -144 -234 -170 -278 l-48 -79 -47 74
c-26 41 -66 103 -89 139 -74 115 -99 155 -110 172 -5 10 -42 68 -81 130 -195
307 -295 467 -388 618 -234 379 -522 904 -508 927 9 14 224 123 244 123 8 0
18 4 23 9 10 8 181 68 260 90 108 30 165 41 345 67 14 2 70 7 125 10 55 4 101
8 103 9 4 4 221 -3 308 -10z"/>
</g>
</svg>
